<?xml version="1.0" standalone="no"?>
<!DOCTYPE svg PUBLIC "-//W3C//DTD SVG 20010904//EN"
 "http://www.w3.org/TR/2001/REC-SVG-20010904/DTD/svg10.dtd">
<svg version="1.0" xmlns="http://www.w3.org/2000/svg"
 width="359.000000pt" height="359.000000pt" viewBox="0 0 359.000000 359.000000"
 preserveAspectRatio="xMidYMid meet">
<metadata>
Created by potrace 1.14, written by Peter Selinger 2001-2017
</metadata>
<g transform="translate(0.000000,359.000000) scale(0.100000,-0.100000)"
fill="#000000" stroke="none">
<path d="M74 3542 c-12 -2 -32 -14 -45 -28 l-24 -26 -1 -1680 -1 -1680 28 -29
c17 -18 38 -29 56 -30 36 -1 3390 -1 3421 0 13 1 37 14 53 30 l29 29 0 1689
c0 1442 -2 1692 -14 1709 -14 19 -44 19 -1748 19 -953 0 -1743 -1 -1754 -3z
m2779 -731 c4 0 7 -448 7 -995 0 -869 -2 -995 -15 -1006 -21 -17 -2078 -18
-2099 -1 -12 10 -14 165 -13 1002 2 737 5 992 14 997 8 5 2073 9 2106 3z"/>
<path d="M1033 2232 c-13 -2 -23 -8 -23 -14 0 -9 62 -130 161 -315 22 -40 39
-81 39 -92 0 -10 -17 -50 -38 -88 -22 -37 -60 -107 -85 -155 -25 -47 -55 -102
-67 -122 -37 -66 -35 -67 106 -64 l126 3 37 87 c20 48 42 88 48 88 7 0 33 -40
58 -90 l45 -90 125 0 c71 0 126 4 130 10 6 9 -22 65 -166 336 l-48 91 18 34
c10 19 57 107 105 196 47 89 86 167 86 173 0 5 -10 10 -22 11 -63 3 -210 0
-221 -4 -7 -3 -26 -39 -42 -81 -20 -53 -34 -76 -44 -74 -12 2 -78 110 -93 151
-3 8 -191 15 -235 9z"/>
<path d="M1933 2232 c-23 -3 -31 -29 -14 -47 4 -6 46 -82 91 -170 45 -88 87
-164 91 -170 21 -23 16 -37 -99 -245 -84 -152 -111 -208 -105 -213 9 -9 235
-8 249 1 5 4 25 44 44 90 18 45 39 82 46 82 7 0 32 -39 57 -87 l45 -88 123 -3
c67 -1 126 1 131 6 5 5 -2 28 -15 53 -13 24 -63 119 -111 211 l-87 168 29 52
c36 65 97 179 147 275 21 40 36 76 32 79 -8 9 -231 9 -244 1 -6 -4 -25 -42
-43 -86 -21 -53 -36 -78 -45 -75 -7 3 -28 39 -46 79 -21 46 -42 77 -54 81 -21
7 -183 11 -222 6z"/>
</g>
</svg>
